<?xml version="1.0" encoding="utf-8"?>
<!-- Generator: Adobe Illustrator 21.0.0, SVG Export Plug-In . SVG Version: 6.00 Build 0)  -->
<svg version="1.1" id="Camada_1" xmlns="http://www.w3.org/2000/svg" xmlns:xlink="http://www.w3.org/1999/xlink" x="0px" y="0px"
	 viewBox="0 0 1366 768" style="enable-background:new 0 0 1366 768;" xml:space="preserve">
<polygon fill="red" points="1007.3,367.9 947.4,308 947.2,308.2 947.2,354.7 707,354.7 707,380.4 947.2,380.4 947.2,427.6 947.4,427.8 "/>
<polygon points="691.2,39.8 631.2,99.7 631.5,99.9 677.9,99.9 677.9,340.1 703.6,340.1 703.6,99.9 750.8,99.9 751.1,99.7 "/>
<polygon points="691.2,691.1 751.1,631.2 750.8,630.9 704.4,630.9 704.4,390.8 678.7,390.8 678.7,630.9 631.5,630.9 631.2,631.2 "/>
<polygon points="371,367.9 430.9,427.8 431.1,427.6 431.1,381.1 671.3,381.1 671.3,355.5 431.1,355.5 431.1,308.2 430.9,308 "/>
</svg>
